# xmcd
#
# Track frame offsets: 
#        150
#        15487
#        29123
#        46945
#        63296
#        76062
#        92064
#        108230
#        126975
#        145714
#        157301
#        173397
#        191961
#        207868
#        222600
#        238788
#        252539
#
# Disc length: 3551 seconds
#
# Revision: 0
# Processed by: cddbd v1.5.2PL0 Copyright (c) Steve Scherf et al.
# Submitted via: ExactAudioCopy v0.99pb5
#
DISCID=f40ddd11
DTITLE=Kylie Minogue - Kylie - The Abbey Road Sessions
DYEAR=2012
DGENRE=
TTITLE0=All The Lovers
TTITLE1=On A Night Like This
TTITLE2=Better The Devil You Know
TTITLE3=Hand On Your Heart
TTITLE4=I Believe In You
TTITLE5=Come Into My World
TTITLE6=Finer Feelings
TTITLE7=Confide In Me
TTITLE8=Slow
TTITLE9=The Locomotion
TTITLE10=Can't Get You Out Of My Head
TTITLE11=Where The Wild Roses Grow
TTITLE12=Flower
TTITLE13=I Should Be So Lucky
TTITLE14=Love At First Sight
TTITLE15=Never Too Late
TTITLE16=Wow (Bonus Track)
EXTD=
EXTT0=
EXTT1=
EXTT2=
EXTT3=
EXTT4=
EXTT5=
EXTT6=
EXTT7=
EXTT8=
EXTT9=
EXTT10=
EXTT11=
EXTT12=
EXTT13=
EXTT14=
EXTT15=
EXTT16=
PLAYORDER=
